<?xml version="1.0" encoding="us-ascii" standalone="no"?><svg xmlns="http://www.w3.org/2000/svg" xmlns:xlink="http://www.w3.org/1999/xlink" contentStyleType="text/css" height="1440.0674px" preserveAspectRatio="none" style="width:2286px;height:1440px;background:#FFFFFF;" version="1.1" viewBox="0 0 2286 1440" width="2286.3687px" zoomAndPan="magnify"><defs/><g><line style="stroke:#181818;stroke-width:0.6159398496240601;stroke-dasharray:5.0,5.0;" x1="29.5651" x2="29.5651" y1="100.148" y2="1341.6998"/><line style="stroke:#181818;stroke-width:0.6159398496240601;stroke-dasharray:5.0,5.0;" x1="235.905" x2="235.905" y1="100.148" y2="1341.6998"/><line style="stroke:#181818;stroke-width:0.6159398496240601;stroke-dasharray:5.0,5.0;" x1="870.323" x2="870.323" y1="100.148" y2="1341.6998"/><line style="stroke:#181818;stroke-width:0.6159398496240601;stroke-dasharray:5.0,5.0;" x1="1122.2424" x2="1122.2424" y1="100.148" y2="1341.6998"/><line style="stroke:#181818;stroke-width:0.6159398496240601;stroke-dasharray:5.0,5.0;" x1="1672.2767" x2="1672.2767" y1="100.148" y2="1341.6998"/><line style="stroke:#181818;stroke-width:0.6159398496240601;stroke-dasharray:5.0,5.0;" x1="2101.5868" x2="2101.5868" y1="100.148" y2="1341.6998"/><text fill="#000000" font-family="sans-serif" font-size="17.2463" lengthAdjust="spacing" textLength="39.4202" x="6.1594" y="96.0806">User</text><ellipse cx="29.5651" cy="16.6304" fill="#E2E2F0" rx="9.855" ry="9.855" style="stroke:#181818;stroke-width:0.6159398496240601;"/><path d="M29.5651,26.4854 L29.5651,59.7462 M13.5507,36.3405 L45.5795,36.3405 M29.5651,59.7462 L13.5507,78.2244 M29.5651,59.7462 L45.5795,78.2244 " fill="none" style="stroke:#181818;stroke-width:0.6159398496240601;"/><text fill="#000000" font-family="sans-serif" font-size="17.2463" lengthAdjust="spacing" textLength="39.4202" x="6.1594" y="1356.4764">User</text><ellipse cx="29.5651" cy="1371.0147" fill="#E2E2F0" rx="9.855" ry="9.855" style="stroke:#181818;stroke-width:0.6159398496240601;"/><path d="M29.5651,1380.8698 L29.5651,1414.1305 M13.5507,1390.7248 L45.5795,1390.7248 M29.5651,1414.1305 L13.5507,1432.6087 M29.5651,1414.1305 L45.5795,1432.6087 " fill="none" style="stroke:#181818;stroke-width:0.6159398496240601;"/><rect fill="#E2E2F0" height="37.3221" rx="3.0797" ry="3.0797" style="stroke:#181818;stroke-width:0.6159398496240601;" width="139.2024" x="166.9197" y="61.594"/><text fill="#000000" font-family="sans-serif" font-size="17.2463" lengthAdjust="spacing" textLength="121.9561" x="175.5429" y="86.2256">CLI Application</text><rect fill="#E2E2F0" height="37.3221" rx="3.0797" ry="3.0797" style="stroke:#181818;stroke-width:0.6159398496240601;" width="139.2024" x="166.9197" y="1340.468"/><text fill="#000000" font-family="sans-serif" font-size="17.2463" lengthAdjust="spacing" textLength="121.9561" x="175.5429" y="1365.0995">CLI Application</text><rect fill="#E2E2F0" height="37.3221" rx="3.0797" ry="3.0797" style="stroke:#181818;stroke-width:0.6159398496240601;" width="87.4635" x="827.2072" y="61.594"/><text fill="#000000" font-family="sans-serif" font-size="17.2463" lengthAdjust="spacing" textLength="70.2171" x="835.8304" y="86.2256">Browser</text><rect fill="#E2E2F0" height="37.3221" rx="3.0797" ry="3.0797" style="stroke:#181818;stroke-width:0.6159398496240601;" width="87.4635" x="827.2072" y="1340.468"/><text fill="#000000" font-family="sans-serif" font-size="17.2463" lengthAdjust="spacing" textLength="70.2171" x="835.8304" y="1365.0995">Browser</text><rect fill="#E2E2F0" height="37.3221" rx="3.0797" ry="3.0797" style="stroke:#181818;stroke-width:0.6159398496240601;" width="169.9994" x="1037.2427" y="61.594"/><text fill="#000000" font-family="sans-serif" font-size="17.2463" lengthAdjust="spacing" textLength="152.7531" x="1045.8659" y="86.2256">Local HTTP Server</text><rect fill="#E2E2F0" height="37.3221" rx="3.0797" ry="3.0797" style="stroke:#181818;stroke-width:0.6159398496240601;" width="169.9994" x="1037.2427" y="1340.468"/><text fill="#000000" font-family="sans-serif" font-size="17.2463" lengthAdjust="spacing" textLength="152.7531" x="1045.8659" y="1365.0995">Local HTTP Server</text><rect fill="#E2E2F0" height="37.3221" rx="3.0797" ry="3.0797" style="stroke:#181818;stroke-width:0.6159398496240601;" width="92.391" x="1626.6971" y="61.594"/><text fill="#000000" font-family="sans-serif" font-size="17.2463" lengthAdjust="spacing" textLength="75.1447" x="1635.3203" y="86.2256">Keycloak</text><rect fill="#E2E2F0" height="37.3221" rx="3.0797" ry="3.0797" style="stroke:#181818;stroke-width:0.6159398496240601;" width="92.391" x="1626.6971" y="1340.468"/><text fill="#000000" font-family="sans-serif" font-size="17.2463" lengthAdjust="spacing" textLength="75.1447" x="1635.3203" y="1365.0995">Keycloak</text><rect fill="#E2E2F0" height="37.3221" rx="3.0797" ry="3.0797" style="stroke:#181818;stroke-width:0.6159398496240601;" width="152.7531" x="2025.2102" y="61.594"/><text fill="#000000" font-family="sans-serif" font-size="17.2463" lengthAdjust="spacing" textLength="135.5068" x="2033.8334" y="86.2256">Service Provider</text><rect fill="#E2E2F0" height="37.3221" rx="3.0797" ry="3.0797" style="stroke:#181818;stroke-width:0.6159398496240601;" width="152.7531" x="2025.2102" y="1340.468"/><text fill="#000000" font-family="sans-serif" font-size="17.2463" lengthAdjust="spacing" textLength="135.5068" x="2033.8334" y="1365.0995">Service Provider</text><polygon fill="#181818" points="221.7383,133.5723,234.0571,138.4998,221.7383,143.4274,226.6659,138.4998" style="stroke:#181818;stroke-width:1.2318796992481202;"/><line style="stroke:#181818;stroke-width:1.2318796992481202;" x1="29.5651" x2="229.1296" y1="138.4998" y2="138.4998"/><text fill="#000000" font-family="sans-serif" font-size="16.0144" font-weight="bold" lengthAdjust="spacing" textLength="11.0869" x="38.1883" y="132.2592">1</text><text fill="#000000" font-family="sans-serif" font-size="16.0144" lengthAdjust="spacing" textLength="157.6806" x="54.2027" y="132.2592">Start CLI application</text><line style="stroke:#181818;stroke-width:1.2318796992481202;" x1="236.5209" x2="288.2598" y1="174.388" y2="174.388"/><line style="stroke:#181818;stroke-width:1.2318796992481202;" x1="288.2598" x2="288.2598" y1="174.388" y2="190.4024"/><line style="stroke:#181818;stroke-width:1.2318796992481202;" x1="237.7528" x2="288.2598" y1="190.4024" y2="190.4024"/><polygon fill="#181818" points="250.0716,185.4749,237.7528,190.4024,250.0716,195.3299,245.1441,190.4024" style="stroke:#181818;stroke-width:1.2318796992481202;"/><text fill="#000000" font-family="sans-serif" font-size="16.0144" font-weight="bold" lengthAdjust="spacing" textLength="11.0869" x="245.1441" y="168.1474">2</text><text fill="#000000" font-family="sans-serif" font-size="16.0144" lengthAdjust="spacing" textLength="173.695" x="261.1585" y="168.1474">Prepare random state</text><line style="stroke:#181818;stroke-width:1.2318796992481202;" x1="236.5209" x2="288.2598" y1="226.2905" y2="226.2905"/><line style="stroke:#181818;stroke-width:1.2318796992481202;" x1="288.2598" x2="288.2598" y1="226.2905" y2="242.305"/><line style="stroke:#181818;stroke-width:1.2318796992481202;" x1="237.7528" x2="288.2598" y1="242.305" y2="242.305"/><polygon fill="#181818" points="250.0716,237.3774,237.7528,242.305,250.0716,247.2325,245.1441,242.305" style="stroke:#181818;stroke-width:1.2318796992481202;"/><text fill="#000000" font-family="sans-serif" font-size="16.0144" font-weight="bold" lengthAdjust="spacing" textLength="11.0869" x="245.1441" y="220.0499">3</text><text fill="#000000" font-family="sans-serif" font-size="16.0144" lengthAdjust="spacing" textLength="208.1877" x="261.1585" y="220.0499">Prepare PKCE code verifier</text><line style="stroke:#181818;stroke-width:1.2318796992481202;" x1="236.5209" x2="288.2598" y1="278.1931" y2="278.1931"/><line style="stroke:#181818;stroke-width:1.2318796992481202;" x1="288.2598" x2="288.2598" y1="278.1931" y2="294.2075"/><line style="stroke:#181818;stroke-width:1.2318796992481202;" x1="237.7528" x2="288.2598" y1="294.2075" y2="294.2075"/><polygon fill="#181818" points="250.0716,289.28,237.7528,294.2075,250.0716,299.135,245.1441,294.2075" style="stroke:#181818;stroke-width:1.2318796992481202;"/><text fill="#000000" font-family="sans-serif" font-size="16.0144" font-weight="bold" lengthAdjust="spacing" textLength="11.0869" x="245.1441" y="271.9525">4</text><text fill="#000000" font-family="sans-serif" font-size="16.0144" lengthAdjust="spacing" textLength="601.1573" x="261.1585" y="271.9525">Prepare Auth request URL with OIDC state, PKCE code challenge, callback url</text><polygon fill="#181818" points="1107.4598,325.1681,1119.7786,330.0956,1107.4598,335.0232,1112.3874,330.0956" style="stroke:#181818;stroke-width:1.2318796992481202;"/><line style="stroke:#181818;stroke-width:1.2318796992481202;" x1="236.5209" x2="1114.8511" y1="330.0956" y2="330.0956"/><text fill="#000000" font-family="sans-serif" font-size="16.0144" font-weight="bold" lengthAdjust="spacing" textLength="11.0869" x="245.1441" y="323.855">5</text><text fill="#000000" font-family="sans-serif" font-size="16.0144" lengthAdjust="spacing" textLength="369.5639" x="261.1585" y="323.855">Start local HTTP server to handle OIDC callback</text><polygon fill="#181818" points="856.1564,361.0562,868.4752,365.9838,856.1564,370.9113,861.0839,365.9838" style="stroke:#181818;stroke-width:1.2318796992481202;"/><line style="stroke:#181818;stroke-width:1.2318796992481202;" x1="236.5209" x2="863.5477" y1="365.9838" y2="365.9838"/><text fill="#000000" font-family="sans-serif" font-size="16.0144" font-weight="bold" lengthAdjust="spacing" textLength="11.0869" x="245.1441" y="359.7432">6</text><text fill="#000000" font-family="sans-serif" font-size="16.0144" lengthAdjust="spacing" textLength="284.5642" x="261.1585" y="359.7432">Start browser with Auth request URL</text><polygon fill="#181818" points="1658.1101,396.9444,1670.4289,401.8719,1658.1101,406.7994,1663.0376,401.8719" style="stroke:#181818;stroke-width:1.2318796992481202;"/><line style="stroke:#181818;stroke-width:1.2318796992481202;" x1="870.9389" x2="1665.5014" y1="401.8719" y2="401.8719"/><text fill="#000000" font-family="sans-serif" font-size="16.0144" font-weight="bold" lengthAdjust="spacing" textLength="11.0869" x="879.5621" y="395.6313">7</text><text fill="#000000" font-family="sans-serif" font-size="16.0144" lengthAdjust="spacing" textLength="147.8256" x="895.5765" y="395.6313">Send Auth request</text><line style="stroke:#181818;stroke-width:1.2318796992481202;" x1="1672.8926" x2="1724.6316" y1="437.76" y2="437.76"/><line style="stroke:#181818;stroke-width:1.2318796992481202;" x1="1724.6316" x2="1724.6316" y1="437.76" y2="453.7744"/><line style="stroke:#181818;stroke-width:1.2318796992481202;" x1="1674.1245" x2="1724.6316" y1="453.7744" y2="453.7744"/><polygon fill="#181818" points="1686.4433,448.8469,1674.1245,453.7744,1686.4433,458.702,1681.5158,453.7744" style="stroke:#181818;stroke-width:1.2318796992481202;"/><text fill="#000000" font-family="sans-serif" font-size="16.0144" font-weight="bold" lengthAdjust="spacing" textLength="11.0869" x="1681.5158" y="431.5194">8</text><text fill="#000000" font-family="sans-serif" font-size="16.0144" lengthAdjust="spacing" textLength="259.9266" x="1697.5302" y="431.5194">Check Keycloak session available</text><polygon fill="#181818" points="884.4896,484.735,872.1708,489.6626,884.4896,494.5901,879.5621,489.6626" style="stroke:#181818;stroke-width:1.2318796992481202;"/><line style="stroke:#181818;stroke-width:1.2318796992481202;stroke-dasharray:2.0,2.0;" x1="877.0983" x2="1671.6608" y1="489.6626" y2="489.6626"/><text fill="#000000" font-family="sans-serif" font-size="16.0144" font-weight="bold" lengthAdjust="spacing" textLength="11.0869" x="891.8809" y="483.422">9</text><text fill="#000000" font-family="sans-serif" font-size="16.0144" lengthAdjust="spacing" textLength="128.1155" x="907.8953" y="483.422">Show login page</text><polygon fill="#181818" points="43.1158,520.6232,30.797,525.5507,43.1158,530.4782,38.1883,525.5507" style="stroke:#181818;stroke-width:1.2318796992481202;"/><line style="stroke:#181818;stroke-width:1.2318796992481202;stroke-dasharray:2.0,2.0;" x1="35.7245" x2="869.7071" y1="525.5507" y2="525.5507"/><text fill="#000000" font-family="sans-serif" font-size="16.0144" font-weight="bold" lengthAdjust="spacing" textLength="22.1738" x="50.5071" y="519.3101">10</text><text fill="#000000" font-family="sans-serif" font-size="16.0144" lengthAdjust="spacing" textLength="145.3618" x="77.6084" y="519.3101">Ask for credentials</text><polygon fill="#181818" points="856.1564,556.5113,868.4752,561.4388,856.1564,566.3663,861.0839,561.4388" style="stroke:#181818;stroke-width:1.2318796992481202;"/><line style="stroke:#181818;stroke-width:1.2318796992481202;" x1="29.5651" x2="863.5477" y1="561.4388" y2="561.4388"/><text fill="#000000" font-family="sans-serif" font-size="16.0144" font-weight="bold" lengthAdjust="spacing" textLength="22.1738" x="38.1883" y="555.1982">11</text><text fill="#000000" font-family="sans-serif" font-size="16.0144" lengthAdjust="spacing" textLength="147.8256" x="65.2896" y="555.1982">Submit credentials</text><polygon fill="#181818" points="1658.1101,592.3994,1670.4289,597.3269,1658.1101,602.2544,1663.0376,597.3269" style="stroke:#181818;stroke-width:1.2318796992481202;"/><line style="stroke:#181818;stroke-width:1.2318796992481202;" x1="870.9389" x2="1665.5014" y1="597.3269" y2="597.3269"/><text fill="#000000" font-family="sans-serif" font-size="16.0144" font-weight="bold" lengthAdjust="spacing" textLength="22.1738" x="879.5621" y="591.0863">12</text><text fill="#000000" font-family="sans-serif" font-size="16.0144" lengthAdjust="spacing" textLength="147.8256" x="906.6635" y="591.0863">Send login request</text><line style="stroke:#181818;stroke-width:1.2318796992481202;" x1="1672.8926" x2="1724.6316" y1="633.215" y2="633.215"/><line style="stroke:#181818;stroke-width:1.2318796992481202;" x1="1724.6316" x2="1724.6316" y1="633.215" y2="649.2295"/><line style="stroke:#181818;stroke-width:1.2318796992481202;" x1="1674.1245" x2="1724.6316" y1="649.2295" y2="649.2295"/><polygon fill="#181818" points="1686.4433,644.302,1674.1245,649.2295,1686.4433,654.157,1681.5158,649.2295" style="stroke:#181818;stroke-width:1.2318796992481202;"/><text fill="#000000" font-family="sans-serif" font-size="16.0144" font-weight="bold" lengthAdjust="spacing" textLength="22.1738" x="1681.5158" y="626.9744">13</text><text fill="#000000" font-family="sans-serif" font-size="16.0144" lengthAdjust="spacing" textLength="140.4343" x="1708.6171" y="626.9744">Authenticate user</text><line style="stroke:#181818;stroke-width:1.2318796992481202;" x1="1672.8926" x2="1724.6316" y1="685.1176" y2="685.1176"/><line style="stroke:#181818;stroke-width:1.2318796992481202;" x1="1724.6316" x2="1724.6316" y1="685.1176" y2="701.132"/><line style="stroke:#181818;stroke-width:1.2318796992481202;" x1="1674.1245" x2="1724.6316" y1="701.132" y2="701.132"/><polygon fill="#181818" points="1686.4433,696.2045,1674.1245,701.132,1686.4433,706.0595,1681.5158,701.132" style="stroke:#181818;stroke-width:1.2318796992481202;"/><text fill="#000000" font-family="sans-serif" font-size="16.0144" font-weight="bold" lengthAdjust="spacing" textLength="22.1738" x="1681.5158" y="678.877">14</text><text fill="#000000" font-family="sans-serif" font-size="16.0144" lengthAdjust="spacing" textLength="266.086" x="1708.6171" y="678.877">Create new Keycloak user session</text><polygon fill="#181818" points="884.4896,732.0926,872.1708,737.0202,884.4896,741.9477,879.5621,737.0202" style="stroke:#181818;stroke-width:1.2318796992481202;"/><line style="stroke:#181818;stroke-width:1.2318796992481202;stroke-dasharray:2.0,2.0;" x1="877.0983" x2="1671.6608" y1="737.0202" y2="737.0202"/><text fill="#000000" font-family="sans-serif" font-size="16.0144" font-weight="bold" lengthAdjust="spacing" textLength="22.1738" x="891.8809" y="730.7795">15</text><text fill="#000000" font-family="sans-serif" font-size="16.0144" lengthAdjust="spacing" textLength="368.332" x="918.9823" y="730.7795">Redirect to callback url with Authorization Code</text><polygon fill="#181818" points="1107.4598,767.9808,1119.7786,772.9083,1107.4598,777.8358,1112.3874,772.9083" style="stroke:#181818;stroke-width:1.2318796992481202;"/><line style="stroke:#181818;stroke-width:1.2318796992481202;" x1="870.9389" x2="1114.8511" y1="772.9083" y2="772.9083"/><text fill="#000000" font-family="sans-serif" font-size="16.0144" font-weight="bold" lengthAdjust="spacing" textLength="22.1738" x="879.5621" y="766.6677">16</text><text fill="#000000" font-family="sans-serif" font-size="16.0144" lengthAdjust="spacing" textLength="194.637" x="906.6635" y="766.6677">Process callback request</text><line style="stroke:#181818;stroke-width:1.2318796992481202;" x1="1122.2424" x2="1173.9814" y1="808.7964" y2="808.7964"/><line style="stroke:#181818;stroke-width:1.2318796992481202;" x1="1173.9814" x2="1173.9814" y1="808.7964" y2="824.8108"/><line style="stroke:#181818;stroke-width:1.2318796992481202;" x1="1123.4743" x2="1173.9814" y1="824.8108" y2="824.8108"/><polygon fill="#181818" points="1135.7931,819.8833,1123.4743,824.8108,1135.7931,829.7383,1130.8656,824.8108" style="stroke:#181818;stroke-width:1.2318796992481202;"/><text fill="#000000" font-family="sans-serif" font-size="16.0144" font-weight="bold" lengthAdjust="spacing" textLength="22.1738" x="1130.8656" y="802.5558">17</text><text fill="#000000" font-family="sans-serif" font-size="16.0144" lengthAdjust="spacing" textLength="137.9705" x="1157.9669" y="802.5558">Check OIDC state</text><line style="stroke:#181818;stroke-width:1.2318796992481202;" x1="1122.2424" x2="1173.9814" y1="860.6989" y2="860.6989"/><line style="stroke:#181818;stroke-width:1.2318796992481202;" x1="1173.9814" x2="1173.9814" y1="860.6989" y2="876.7134"/><line style="stroke:#181818;stroke-width:1.2318796992481202;" x1="1123.4743" x2="1173.9814" y1="876.7134" y2="876.7134"/><polygon fill="#181818" points="1135.7931,871.7859,1123.4743,876.7134,1135.7931,881.6409,1130.8656,876.7134" style="stroke:#181818;stroke-width:1.2318796992481202;"/><text fill="#000000" font-family="sans-serif" font-size="16.0144" font-weight="bold" lengthAdjust="spacing" textLength="22.1738" x="1130.8656" y="854.4583">18</text><text fill="#000000" font-family="sans-serif" font-size="16.0144" lengthAdjust="spacing" textLength="253.7672" x="1157.9669" y="854.4583">Check Authorization Code exists</text><polygon fill="#181818" points="1658.1101,907.674,1670.4289,912.6015,1658.1101,917.529,1663.0376,912.6015" style="stroke:#181818;stroke-width:1.2318796992481202;"/><line style="stroke:#181818;stroke-width:1.2318796992481202;" x1="1122.2424" x2="1665.5014" y1="912.6015" y2="912.6015"/><text fill="#000000" font-family="sans-serif" font-size="16.0144" font-weight="bold" lengthAdjust="spacing" textLength="22.1738" x="1130.8656" y="906.3609">19</text><text fill="#000000" font-family="sans-serif" font-size="16.0144" lengthAdjust="spacing" textLength="493.9838" x="1157.9669" y="906.3609">Request tokens with Authorization Code and PKCE code verifier</text><line style="stroke:#181818;stroke-width:1.2318796992481202;" x1="1672.8926" x2="1724.6316" y1="948.4896" y2="948.4896"/><line style="stroke:#181818;stroke-width:1.2318796992481202;" x1="1724.6316" x2="1724.6316" y1="948.4896" y2="964.5041"/><line style="stroke:#181818;stroke-width:1.2318796992481202;" x1="1674.1245" x2="1724.6316" y1="964.5041" y2="964.5041"/><polygon fill="#181818" points="1686.4433,959.5765,1674.1245,964.5041,1686.4433,969.4316,1681.5158,964.5041" style="stroke:#181818;stroke-width:1.2318796992481202;"/><text fill="#000000" font-family="sans-serif" font-size="16.0144" font-weight="bold" lengthAdjust="spacing" textLength="22.1738" x="1681.5158" y="942.249">20</text><text fill="#000000" font-family="sans-serif" font-size="16.0144" lengthAdjust="spacing" textLength="384.3465" x="1708.6171" y="942.249">Check Authorization Code and PKCE code verifier</text><polygon fill="#181818" points="1135.7931,995.4647,1123.4743,1000.3922,1135.7931,1005.3197,1130.8656,1000.3922" style="stroke:#181818;stroke-width:1.2318796992481202;"/><line style="stroke:#181818;stroke-width:1.2318796992481202;stroke-dasharray:2.0,2.0;" x1="1128.4018" x2="1671.6608" y1="1000.3922" y2="1000.3922"/><text fill="#000000" font-family="sans-serif" font-size="16.0144" font-weight="bold" lengthAdjust="spacing" textLength="22.1738" x="1143.1844" y="994.1516">21</text><text fill="#000000" font-family="sans-serif" font-size="16.0144" lengthAdjust="spacing" textLength="98.5504" x="1170.2857" y="994.1516">Send tokens</text><polygon fill="#181818" points="250.0716,1031.3528,237.7528,1036.2803,250.0716,1041.2078,245.1441,1036.2803" style="stroke:#181818;stroke-width:1.2318796992481202;"/><line style="stroke:#181818;stroke-width:1.2318796992481202;stroke-dasharray:2.0,2.0;" x1="242.6803" x2="1121.0105" y1="1036.2803" y2="1036.2803"/><text fill="#000000" font-family="sans-serif" font-size="16.0144" font-weight="bold" lengthAdjust="spacing" textLength="22.1738" x="257.4629" y="1030.0397">22</text><text fill="#000000" font-family="sans-serif" font-size="16.0144" lengthAdjust="spacing" textLength="97.3185" x="284.5642" y="1030.0397">Save tokens</text><line style="stroke:#181818;stroke-width:1.2318796992481202;" x1="1122.2424" x2="1173.9814" y1="1072.1684" y2="1072.1684"/><line style="stroke:#181818;stroke-width:1.2318796992481202;" x1="1173.9814" x2="1173.9814" y1="1072.1684" y2="1088.1829"/><line style="stroke:#181818;stroke-width:1.2318796992481202;" x1="1123.4743" x2="1173.9814" y1="1088.1829" y2="1088.1829"/><polygon fill="#181818" points="1135.7931,1083.2553,1123.4743,1088.1829,1135.7931,1093.1104,1130.8656,1088.1829" style="stroke:#181818;stroke-width:1.2318796992481202;"/><text fill="#000000" font-family="sans-serif" font-size="16.0144" font-weight="bold" lengthAdjust="spacing" textLength="22.1738" x="1130.8656" y="1065.9278">23</text><text fill="#000000" font-family="sans-serif" font-size="16.0144" lengthAdjust="spacing" textLength="176.1588" x="1157.9669" y="1065.9278">Shutdown HTTP server</text><polygon fill="#181818" points="2086.8042,1119.1435,2099.123,1124.071,2086.8042,1128.9985,2091.7317,1124.071" style="stroke:#181818;stroke-width:1.2318796992481202;"/><line style="stroke:#181818;stroke-width:1.2318796992481202;" x1="236.5209" x2="2094.1955" y1="1124.071" y2="1124.071"/><text fill="#000000" font-family="sans-serif" font-size="16.0144" font-weight="bold" lengthAdjust="spacing" textLength="22.1738" x="245.1441" y="1117.8304">24</text><text fill="#000000" font-family="sans-serif" font-size="16.0144" lengthAdjust="spacing" textLength="296.883" x="272.2454" y="1117.8304">Access secured API with access token</text><polygon fill="#181818" points="1686.4433,1155.0316,1674.1245,1159.9591,1686.4433,1164.8866,1681.5158,1159.9591" style="stroke:#181818;stroke-width:1.2318796992481202;"/><line style="stroke:#181818;stroke-width:1.2318796992481202;" x1="1679.052" x2="2100.3549" y1="1159.9591" y2="1159.9591"/><text fill="#000000" font-family="sans-serif" font-size="16.0144" font-weight="bold" lengthAdjust="spacing" textLength="22.1738" x="1693.8346" y="1153.7185">25</text><text fill="#000000" font-family="sans-serif" font-size="16.0144" lengthAdjust="spacing" textLength="113.3329" x="1720.9359" y="1153.7185">Validate token</text><polygon fill="#181818" points="2086.8042,1190.9197,2099.123,1195.8472,2086.8042,1200.7747,2091.7317,1195.8472" style="stroke:#181818;stroke-width:1.2318796992481202;"/><line style="stroke:#181818;stroke-width:1.2318796992481202;stroke-dasharray:2.0,2.0;" x1="1672.8926" x2="2094.1955" y1="1195.8472" y2="1195.8472"/><text fill="#000000" font-family="sans-serif" font-size="16.0144" font-weight="bold" lengthAdjust="spacing" textLength="22.1738" x="1681.5158" y="1189.6066">26</text><text fill="#000000" font-family="sans-serif" font-size="16.0144" lengthAdjust="spacing" textLength="104.7098" x="1708.6171" y="1189.6066">Token is valid</text><line style="stroke:#181818;stroke-width:1.2318796992481202;" x1="2101.5868" x2="2153.3257" y1="1231.7353" y2="1231.7353"/><line style="stroke:#181818;stroke-width:1.2318796992481202;" x1="2153.3257" x2="2153.3257" y1="1231.7353" y2="1247.7498"/><line style="stroke:#181818;stroke-width:1.2318796992481202;" x1="2102.8186" x2="2153.3257" y1="1247.7498" y2="1247.7498"/><polygon fill="#181818" points="2115.1374,1242.8223,2102.8186,1247.7498,2115.1374,1252.6773,2110.2099,1247.7498" style="stroke:#181818;stroke-width:1.2318796992481202;"/><text fill="#000000" font-family="sans-serif" font-size="16.0144" font-weight="bold" lengthAdjust="spacing" textLength="22.1738" x="2110.2099" y="1225.4947">27</text><text fill="#000000" font-family="sans-serif" font-size="16.0144" lengthAdjust="spacing" textLength="140.4343" x="2137.3113" y="1225.4947">Authorize request</text><polygon fill="#181818" points="250.0716,1278.7104,237.7528,1283.6379,250.0716,1288.5654,245.1441,1283.6379" style="stroke:#181818;stroke-width:1.2318796992481202;"/><line style="stroke:#181818;stroke-width:1.2318796992481202;stroke-dasharray:2.0,2.0;" x1="242.6803" x2="2100.3549" y1="1283.6379" y2="1283.6379"/><text fill="#000000" font-family="sans-serif" font-size="16.0144" font-weight="bold" lengthAdjust="spacing" textLength="22.1738" x="257.4629" y="1277.3973">28</text><text fill="#000000" font-family="sans-serif" font-size="16.0144" lengthAdjust="spacing" textLength="149.0574" x="284.5642" y="1277.3973">Send secured data</text><polygon fill="#181818" points="43.1158,1314.5985,30.797,1319.526,43.1158,1324.4535,38.1883,1319.526" style="stroke:#181818;stroke-width:1.2318796992481202;"/><line style="stroke:#181818;stroke-width:1.2318796992481202;stroke-dasharray:2.0,2.0;" x1="35.7245" x2="235.289" y1="1319.526" y2="1319.526"/><text fill="#000000" font-family="sans-serif" font-size="16.0144" font-weight="bold" lengthAdjust="spacing" textLength="22.1738" x="50.5071" y="1313.2854">29</text><text fill="#000000" font-family="sans-serif" font-size="16.0144" lengthAdjust="spacing" textLength="150.2893" x="77.6084" y="1313.2854">Show secured data</text><!--SRC=[dLJ1Rjim3BtxAuWSYmtOq9vs691v0neqm88qsLsHsLY88dcId6px-b6I9LjfqW6x6BRuzCX7Fjfo9X7k7nu-t7saHyMuqmPcMujc1io2VwawPfpWecFAmQnUBc3UTL9mveHM0LLBKOA-67rE5CDx2LXgIWoFcyqAdj6S1cWuVNIkAy5F-9jBpGu1apvAY2SH765bz4aqAJFZXwfYlTEgF-we1Ay6td_szNw2PqS4uEMmKKv5eOnO6QGa28QfHX_1EkRmAc3rL7y3hXi4KY9U1AMw1flthWM3Ftkq3hRh9Pm57NnVVAqZzxi94M-PbAZsT4WzaJkI0hsHYJTtAkcGOqDjQ2Wu3IqLJkCD6H9BOXZ6akxlucSiwRBGQW3xUwd_T15LKq2h52jnTOjKV8vPj9Ow3Up4X6GxYPDhHLsjFfEilL3GiJsEDH1e6n1pUu0NiYitsA1oWacRHppIzBkZS0NcjfgOxcqvNh5d8iCWzDxPDsGRz0Y5vr6xXwS6t92znaOOvCxFRphvSJBQY3_1h52JKwPg9gwWHU2KPwH8eZBcuaASqcZ6Vm1V5mBuIrXdotjZEzQ3dPm-eBAtr00vzjewlUMi_s6vM24_-rZOjFpyfs0dl18kAThUDVgifYkOLutwJxxXOI0MUKzUXFbg4Pl0uddWhpoqrFY3IT5u8qL0QPf0lF4141PE7fefXgn3Sp0R8CQpDYyzrKHvM2mwxrZOmcdyBm00]--></g></svg>